<?xml version="1.0" encoding="UTF-8" standalone="no"?>
<!DOCTYPE svg PUBLIC "-//W3C//DTD SVG 1.1//EN"
 "http://www.w3.org/Graphics/SVG/1.1/DTD/svg11.dtd">
<!-- Generated by graphviz version 2.36.0 (20140111.2315)
 -->
<!-- Title: main Pages: 1 -->
<svg width="168pt" height="66pt"
 viewBox="0.00 0.00 168.00 66.00" xmlns="http://www.w3.org/2000/svg" xmlns:xlink="http://www.w3.org/1999/xlink">
<g id="graph0" class="graph" transform="scale(1 1) rotate(0) translate(4 62)">
<title>main</title>
<polygon fill="white" stroke="none" points="-4,4 -4,-62 164,-62 164,4 -4,4"/>
<!-- Node0 -->
<g id="node1" class="node"><title>Node0</title>
<polygon fill="#bfbfbf" stroke="black" points="0,-19.5 0,-38.5 38,-38.5 38,-19.5 0,-19.5"/>
<text text-anchor="middle" x="19" y="-26.5" font-family="Helvetica,sans-Serif" font-size="10.00">main</text>
</g>
<!-- Node1 -->
<g id="node2" class="node"><title>Node1</title>
<g id="a_node2"><a doxygen="/home/travis/build/ortus-art/print_ip/docs/cppreference-doxygen-web.tag.xml:http://en.cppreference.com/w/" xlink:href="http://en.cppreference.com/w/cpp/utility/tuple/make_tuple.html#" target="_top" xlink:title="std::make_tuple">
<polygon fill="white" stroke="black" points="74,-38.5 74,-57.5 160,-57.5 160,-38.5 74,-38.5"/>
<text text-anchor="middle" x="117" y="-45.5" font-family="Helvetica,sans-Serif" font-size="10.00">std::make_tuple</text>
</a>
</g>
</g>
<!-- Node0&#45;&gt;Node1 -->
<g id="edge1" class="edge"><title>Node0&#45;&gt;Node1</title>
<path fill="none" stroke="midnightblue" d="M38.0569,-32.5738C45.4758,-34.0421 54.4838,-35.8249 63.7049,-37.6499"/>
<polygon fill="midnightblue" stroke="midnightblue" points="63.24,-41.1257 73.7293,-39.6339 64.5991,-34.2589 63.24,-41.1257"/>
</g>
<!-- Node2 -->
<g id="node3" class="node"><title>Node2</title>
<g id="a_node3"><a xlink:href="../../dd/de9/namespaceprint__ip.html#a0495a0775e2df081525bd97f35f59363" target="_top" xlink:title="print_ip::print">
<polygon fill="white" stroke="black" points="80.5,-0.5 80.5,-19.5 153.5,-19.5 153.5,-0.5 80.5,-0.5"/>
<text text-anchor="middle" x="117" y="-7.5" font-family="Helvetica,sans-Serif" font-size="10.00">print_ip::print</text>
</a>
</g>
</g>
<!-- Node0&#45;&gt;Node2 -->
<g id="edge2" class="edge"><title>Node0&#45;&gt;Node2</title>
<path fill="none" stroke="midnightblue" d="M38.0569,-25.4262C47.2147,-23.6137 58.7938,-21.3221 70.2062,-19.0634"/>
<polygon fill="midnightblue" stroke="midnightblue" points="70.9971,-22.4748 80.1273,-17.0998 69.638,-15.608 70.9971,-22.4748"/>
</g>
</g>
</svg>
