<?xml version="1.0" encoding="UTF-8" standalone="no"?>
<!DOCTYPE svg PUBLIC "-//W3C//DTD SVG 1.1//EN"
 "http://www.w3.org/Graphics/SVG/1.1/DTD/svg11.dtd">
<!-- Generated by graphviz version 2.36.0 (20140111.2315)
 -->
<!-- Title: Graphical Class Hierarchy Pages: 1 -->
<svg width="256pt" height="87pt"
 viewBox="0.00 0.00 256.00 87.00" xmlns="http://www.w3.org/2000/svg" xmlns:xlink="http://www.w3.org/1999/xlink">
<g id="graph0" class="graph" transform="scale(1 1) rotate(0) translate(4 83)">
<title>Graphical Class Hierarchy</title>
<polygon fill="white" stroke="none" points="-4,4 -4,-83 252,-83 252,4 -4,4"/>
<!-- Node0 -->
<g id="node1" class="node"><title>Node0</title>
<g id="a_node1"><a doxygen="/home/travis/build/ortus-art/print_ip/docs/cppreference-doxygen-web.tag.xml:http://en.cppreference.com/w/" xlink:href="http://en.cppreference.com/w/cpp/types/integral_constant.html" target="_top" xlink:title="std::true_type">
<polygon fill="white" stroke="black" points="0.5,-29.5 0.5,-48.5 77.5,-48.5 77.5,-29.5 0.5,-29.5"/>
<text text-anchor="middle" x="39" y="-36.5" font-family="Helvetica,sans-Serif" font-size="10.00">std::true_type</text>
</a>
</g>
</g>
<!-- Node1 -->
<g id="node2" class="node"><title>Node1</title>
<g id="a_node2"><a xlink:href="d7/d48/structprint__ip_1_1is__container_3_01std_1_1list_3_01__Args_8_8_8_01_4_01_4.html" target="_top" xlink:title="print_ip::is_container\l\&lt; std::list\&lt; _Args... \&gt; \&gt;">
<polygon fill="white" stroke="black" points="121.5,-49 121.5,-79 240.5,-79 240.5,-49 121.5,-49"/>
<text text-anchor="start" x="129.5" y="-67" font-family="Helvetica,sans-Serif" font-size="10.00">print_ip::is_container</text>
<text text-anchor="middle" x="181" y="-56" font-family="Helvetica,sans-Serif" font-size="10.00">&lt; std::list&lt; _Args... &gt; &gt;</text>
</a>
</g>
</g>
<!-- Node0&#45;&gt;Node1 -->
<g id="edge1" class="edge"><title>Node0&#45;&gt;Node1</title>
<path fill="none" stroke="midnightblue" d="M87.6087,-47.5016C98.4298,-49.4339 110.049,-51.5087 121.271,-53.5126"/>
<polygon fill="midnightblue" stroke="midnightblue" points="87.977,-44.012 77.5174,-45.6995 86.7464,-50.903 87.977,-44.012"/>
</g>
<!-- Node2 -->
<g id="node3" class="node"><title>Node2</title>
<g id="a_node3"><a xlink:href="dd/d70/structprint__ip_1_1is__container_3_01std_1_1vector_3_01__Args_8_8_8_01_4_01_4.html" target="_top" xlink:title="print_ip::is_container\l\&lt; std::vector\&lt; _Args... \&gt; \&gt;">
<polygon fill="white" stroke="black" points="114,-0 114,-30 248,-30 248,-0 114,-0"/>
<text text-anchor="start" x="122" y="-18" font-family="Helvetica,sans-Serif" font-size="10.00">print_ip::is_container</text>
<text text-anchor="middle" x="181" y="-7" font-family="Helvetica,sans-Serif" font-size="10.00">&lt; std::vector&lt; _Args... &gt; &gt;</text>
</a>
</g>
</g>
<!-- Node0&#45;&gt;Node2 -->
<g id="edge2" class="edge"><title>Node0&#45;&gt;Node2</title>
<path fill="none" stroke="midnightblue" d="M87.5281,-30.8523C95.9644,-29.4061 104.888,-27.8764 113.731,-26.3603"/>
<polygon fill="midnightblue" stroke="midnightblue" points="86.7823,-27.429 77.5174,-32.5684 87.9651,-34.3284 86.7823,-27.429"/>
</g>
</g>
</svg>
