<?xml version="1.0" encoding="UTF-8" standalone="no"?>
<!DOCTYPE svg PUBLIC "-//W3C//DTD SVG 1.1//EN"
 "http://www.w3.org/Graphics/SVG/1.1/DTD/svg11.dtd">
<!-- Generated by graphviz version 2.36.0 (20140111.2315)
 -->
<!-- Title: common.h Pages: 1 -->
<svg width="225pt" height="84pt"
 viewBox="0.00 0.00 225.00 84.00" xmlns="http://www.w3.org/2000/svg" xmlns:xlink="http://www.w3.org/1999/xlink">
<g id="graph0" class="graph" transform="scale(1 1) rotate(0) translate(4 80)">
<title>common.h</title>
<polygon fill="white" stroke="none" points="-4,4 -4,-80 221,-80 221,4 -4,4"/>
<!-- Node1 -->
<g id="node1" class="node"><title>Node1</title>
<polygon fill="#bfbfbf" stroke="black" points="88,-56.5 88,-75.5 150,-75.5 150,-56.5 88,-56.5"/>
<text text-anchor="middle" x="119" y="-63.5" font-family="Helvetica,sans-Serif" font-size="10.00">common.h</text>
</g>
<!-- Node2 -->
<g id="node2" class="node"><title>Node2</title>
<g id="a_node2"><a xlink:href="../../d9/df9/common_8cpp.html" target="_top" xlink:title="common.cpp">
<polygon fill="white" stroke="black" points="-0.5,-0.5 -0.5,-19.5 72.5,-19.5 72.5,-0.5 -0.5,-0.5"/>
<text text-anchor="middle" x="36" y="-7.5" font-family="Helvetica,sans-Serif" font-size="10.00">common.cpp</text>
</a>
</g>
</g>
<!-- Node1&#45;&gt;Node2 -->
<g id="edge1" class="edge"><title>Node1&#45;&gt;Node2</title>
<path fill="none" stroke="midnightblue" d="M96.9007,-50.6221C81.7382,-40.7574 62.1172,-27.9919 49.3023,-19.6545"/>
<polygon fill="midnightblue" stroke="midnightblue" points="95.3738,-53.8042 105.665,-56.324 99.1912,-47.9367 95.3738,-53.8042"/>
</g>
<!-- Node3 -->
<g id="node3" class="node"><title>Node3</title>
<g id="a_node3"><a xlink:href="../../df/d0a/main_8cpp.html" target="_top" xlink:title="main.cpp">
<polygon fill="white" stroke="black" points="91,-0.5 91,-19.5 147,-19.5 147,-0.5 91,-0.5"/>
<text text-anchor="middle" x="119" y="-7.5" font-family="Helvetica,sans-Serif" font-size="10.00">main.cpp</text>
</a>
</g>
</g>
<!-- Node1&#45;&gt;Node3 -->
<g id="edge2" class="edge"><title>Node1&#45;&gt;Node3</title>
<path fill="none" stroke="midnightblue" d="M119,-45.8045C119,-36.9102 119,-26.7798 119,-19.7511"/>
<polygon fill="midnightblue" stroke="midnightblue" points="115.5,-46.083 119,-56.083 122.5,-46.083 115.5,-46.083"/>
</g>
<!-- Node4 -->
<g id="node4" class="node"><title>Node4</title>
<g id="a_node4"><a xlink:href="../../df/dac/test_8cpp.html" target="_top" xlink:title="test.cpp">
<polygon fill="white" stroke="black" points="165,-0.5 165,-19.5 217,-19.5 217,-0.5 165,-0.5"/>
<text text-anchor="middle" x="191" y="-7.5" font-family="Helvetica,sans-Serif" font-size="10.00">test.cpp</text>
</a>
</g>
</g>
<!-- Node1&#45;&gt;Node4 -->
<g id="edge3" class="edge"><title>Node1&#45;&gt;Node4</title>
<path fill="none" stroke="midnightblue" d="M138.866,-50.1008C151.823,-40.3824 168.297,-28.0269 179.221,-19.8339"/>
<polygon fill="midnightblue" stroke="midnightblue" points="136.468,-47.5239 130.568,-56.324 140.668,-53.1239 136.468,-47.5239"/>
</g>
</g>
</svg>
