<?xml version="1.0" encoding="UTF-8" standalone="no"?>
<!DOCTYPE svg PUBLIC "-//W3C//DTD SVG 1.1//EN"
 "http://www.w3.org/Graphics/SVG/1.1/DTD/svg11.dtd">
<!-- Generated by graphviz version 2.36.0 (20140111.2315)
 -->
<!-- Title: print_ip.h Pages: 1 -->
<svg width="468pt" height="140pt"
 viewBox="0.00 0.00 468.00 140.00" xmlns="http://www.w3.org/2000/svg" xmlns:xlink="http://www.w3.org/1999/xlink">
<g id="graph0" class="graph" transform="scale(1 1) rotate(0) translate(4 136)">
<title>print_ip.h</title>
<polygon fill="white" stroke="none" points="-4,4 -4,-136 464,-136 464,4 -4,4"/>
<!-- Node0 -->
<g id="node1" class="node"><title>Node0</title>
<polygon fill="#bfbfbf" stroke="black" points="159,-112.5 159,-131.5 215,-131.5 215,-112.5 159,-112.5"/>
<text text-anchor="middle" x="187" y="-119.5" font-family="Helvetica,sans-Serif" font-size="10.00">print_ip.h</text>
</g>
<!-- Node1 -->
<g id="node2" class="node"><title>Node1</title>
<polygon fill="white" stroke="#bfbfbf" points="-1,-56.5 -1,-75.5 55,-75.5 55,-56.5 -1,-56.5"/>
<text text-anchor="middle" x="27" y="-63.5" font-family="Helvetica,sans-Serif" font-size="10.00">algorithm</text>
</g>
<!-- Node0&#45;&gt;Node1 -->
<g id="edge1" class="edge"><title>Node0&#45;&gt;Node1</title>
<path fill="none" stroke="midnightblue" d="M161.648,-112.444C134.731,-103.359 92.0037,-88.9388 61.913,-78.7831"/>
<polygon fill="midnightblue" stroke="midnightblue" points="62.828,-75.3981 52.2339,-75.5164 60.5895,-82.0305 62.828,-75.3981"/>
</g>
<!-- Node2 -->
<g id="node3" class="node"><title>Node2</title>
<polygon fill="white" stroke="#bfbfbf" points="73,-56.5 73,-75.5 111,-75.5 111,-56.5 73,-56.5"/>
<text text-anchor="middle" x="92" y="-63.5" font-family="Helvetica,sans-Serif" font-size="10.00">array</text>
</g>
<!-- Node0&#45;&gt;Node2 -->
<g id="edge2" class="edge"><title>Node0&#45;&gt;Node2</title>
<path fill="none" stroke="midnightblue" d="M171.737,-112.324C156.779,-103.822 133.745,-90.7288 116.273,-80.7975"/>
<polygon fill="midnightblue" stroke="midnightblue" points="117.649,-77.5534 107.226,-75.6545 114.19,-83.639 117.649,-77.5534"/>
</g>
<!-- Node3 -->
<g id="node4" class="node"><title>Node3</title>
<polygon fill="white" stroke="#bfbfbf" points="129.5,-56.5 129.5,-75.5 176.5,-75.5 176.5,-56.5 129.5,-56.5"/>
<text text-anchor="middle" x="153" y="-63.5" font-family="Helvetica,sans-Serif" font-size="10.00">iterator</text>
</g>
<!-- Node0&#45;&gt;Node3 -->
<g id="edge3" class="edge"><title>Node0&#45;&gt;Node3</title>
<path fill="none" stroke="midnightblue" d="M181.386,-112.083C176.633,-104.534 169.682,-93.4948 163.848,-84.2298"/>
<polygon fill="midnightblue" stroke="midnightblue" points="166.8,-82.3486 158.51,-75.7511 160.876,-86.0783 166.8,-82.3486"/>
</g>
<!-- Node4 -->
<g id="node5" class="node"><title>Node4</title>
<polygon fill="white" stroke="#bfbfbf" points="195,-56.5 195,-75.5 249,-75.5 249,-56.5 195,-56.5"/>
<text text-anchor="middle" x="222" y="-63.5" font-family="Helvetica,sans-Serif" font-size="10.00">iostream</text>
</g>
<!-- Node0&#45;&gt;Node4 -->
<g id="edge4" class="edge"><title>Node0&#45;&gt;Node4</title>
<path fill="none" stroke="midnightblue" d="M192.78,-112.083C197.672,-104.534 204.827,-93.4948 210.833,-84.2298"/>
<polygon fill="midnightblue" stroke="midnightblue" points="213.826,-86.0463 216.328,-75.7511 207.952,-82.239 213.826,-86.0463"/>
</g>
<!-- Node5 -->
<g id="node6" class="node"><title>Node5</title>
<polygon fill="white" stroke="#bfbfbf" points="267.5,-56.5 267.5,-75.5 308.5,-75.5 308.5,-56.5 267.5,-56.5"/>
<text text-anchor="middle" x="288" y="-63.5" font-family="Helvetica,sans-Serif" font-size="10.00">string</text>
</g>
<!-- Node0&#45;&gt;Node5 -->
<g id="edge5" class="edge"><title>Node0&#45;&gt;Node5</title>
<path fill="none" stroke="midnightblue" d="M203.227,-112.324C219.351,-103.703 244.3,-90.3643 262.964,-80.3855"/>
<polygon fill="midnightblue" stroke="midnightblue" points="264.644,-83.456 271.813,-75.6545 261.344,-77.283 264.644,-83.456"/>
</g>
<!-- Node6 -->
<g id="node7" class="node"><title>Node6</title>
<g id="a_node7"><a xlink:href="../../d5/d3e/print__traits_8h.html" target="_top" xlink:title="print_traits.h">
<polygon fill="white" stroke="black" points="326.5,-56.5 326.5,-75.5 397.5,-75.5 397.5,-56.5 326.5,-56.5"/>
<text text-anchor="middle" x="362" y="-63.5" font-family="Helvetica,sans-Serif" font-size="10.00">print_traits.h</text>
</a>
</g>
</g>
<!-- Node0&#45;&gt;Node6 -->
<g id="edge6" class="edge"><title>Node0&#45;&gt;Node6</title>
<path fill="none" stroke="midnightblue" d="M214.729,-112.444C244.426,-103.28 291.716,-88.6876 324.669,-78.5192"/>
<polygon fill="midnightblue" stroke="midnightblue" points="325.877,-81.8094 334.4,-75.5164 323.813,-75.1206 325.877,-81.8094"/>
</g>
<!-- Node7 -->
<g id="node8" class="node"><title>Node7</title>
<polygon fill="white" stroke="#bfbfbf" points="233,-0.5 233,-19.5 295,-19.5 295,-0.5 233,-0.5"/>
<text text-anchor="middle" x="264" y="-7.5" font-family="Helvetica,sans-Serif" font-size="10.00">type_traits</text>
</g>
<!-- Node6&#45;&gt;Node7 -->
<g id="edge7" class="edge"><title>Node6&#45;&gt;Node7</title>
<path fill="none" stroke="midnightblue" d="M346.255,-56.324C330.681,-47.7428 306.623,-34.486 288.541,-24.5224"/>
<polygon fill="midnightblue" stroke="midnightblue" points="290.154,-21.4152 279.706,-19.6545 286.776,-27.546 290.154,-21.4152"/>
</g>
<!-- Node8 -->
<g id="node9" class="node"><title>Node8</title>
<polygon fill="white" stroke="#bfbfbf" points="313,-0.5 313,-19.5 357,-19.5 357,-0.5 313,-0.5"/>
<text text-anchor="middle" x="335" y="-7.5" font-family="Helvetica,sans-Serif" font-size="10.00">vector</text>
</g>
<!-- Node6&#45;&gt;Node8 -->
<g id="edge8" class="edge"><title>Node6&#45;&gt;Node8</title>
<path fill="none" stroke="midnightblue" d="M357.541,-56.083C353.846,-48.6913 348.477,-37.9533 343.906,-28.8111"/>
<polygon fill="midnightblue" stroke="midnightblue" points="346.978,-27.1301 339.376,-19.7511 340.717,-30.2606 346.978,-27.1301"/>
</g>
<!-- Node9 -->
<g id="node10" class="node"><title>Node9</title>
<polygon fill="white" stroke="#bfbfbf" points="374.5,-0.5 374.5,-19.5 403.5,-19.5 403.5,-0.5 374.5,-0.5"/>
<text text-anchor="middle" x="389" y="-7.5" font-family="Helvetica,sans-Serif" font-size="10.00">list</text>
</g>
<!-- Node6&#45;&gt;Node9 -->
<g id="edge9" class="edge"><title>Node6&#45;&gt;Node9</title>
<path fill="none" stroke="midnightblue" d="M366.459,-56.083C370.154,-48.6913 375.523,-37.9533 380.094,-28.8111"/>
<polygon fill="midnightblue" stroke="midnightblue" points="383.283,-30.2606 384.624,-19.7511 377.022,-27.1301 383.283,-30.2606"/>
</g>
<!-- Node10 -->
<g id="node11" class="node"><title>Node10</title>
<polygon fill="white" stroke="#bfbfbf" points="422,-0.5 422,-19.5 460,-19.5 460,-0.5 422,-0.5"/>
<text text-anchor="middle" x="441" y="-7.5" font-family="Helvetica,sans-Serif" font-size="10.00">tuple</text>
</g>
<!-- Node6&#45;&gt;Node10 -->
<g id="edge10" class="edge"><title>Node6&#45;&gt;Node10</title>
<path fill="none" stroke="midnightblue" d="M374.693,-56.324C386.901,-47.979 405.578,-35.2122 420.003,-25.3524"/>
<polygon fill="midnightblue" stroke="midnightblue" points="422.058,-28.1871 428.339,-19.6545 418.108,-22.4082 422.058,-28.1871"/>
</g>
</g>
</svg>
