<?xml version="1.0" encoding="UTF-8" standalone="no"?>
<!DOCTYPE svg PUBLIC "-//W3C//DTD SVG 1.1//EN"
 "http://www.w3.org/Graphics/SVG/1.1/DTD/svg11.dtd">
<!-- Generated by graphviz version 2.36.0 (20140111.2315)
 -->
<!-- Title: print_ip::print Pages: 1 -->
<svg width="192pt" height="104pt"
 viewBox="0.00 0.00 192.00 104.00" xmlns="http://www.w3.org/2000/svg" xmlns:xlink="http://www.w3.org/1999/xlink">
<g id="graph0" class="graph" transform="scale(1 1) rotate(0) translate(4 100)">
<title>print_ip::print</title>
<polygon fill="white" stroke="none" points="-4,4 -4,-100 188,-100 188,4 -4,4"/>
<!-- Node1 -->
<g id="node1" class="node"><title>Node1</title>
<polygon fill="#bfbfbf" stroke="black" points="0.5,-38.5 0.5,-57.5 73.5,-57.5 73.5,-38.5 0.5,-38.5"/>
<text text-anchor="middle" x="37" y="-45.5" font-family="Helvetica,sans-Serif" font-size="10.00">print_ip::print</text>
</g>
<!-- Node2 -->
<g id="node2" class="node"><title>Node2</title>
<g id="a_node2"><a xlink:href="../../db/d60/group__app.html#gae66f6b31b5ad750f1fe042a706a4e3d4" target="_top" xlink:title="main">
<polygon fill="white" stroke="black" points="128,-76.5 128,-95.5 166,-95.5 166,-76.5 128,-76.5"/>
<text text-anchor="middle" x="147" y="-83.5" font-family="Helvetica,sans-Serif" font-size="10.00">main</text>
</a>
</g>
</g>
<!-- Node1&#45;&gt;Node2 -->
<g id="edge1" class="edge"><title>Node1&#45;&gt;Node2</title>
<path fill="none" stroke="midnightblue" d="M74.8545,-60.9673C92.7608,-67.2677 113.473,-74.5555 127.916,-79.637"/>
<polygon fill="midnightblue" stroke="midnightblue" points="75.8478,-57.6065 65.253,-57.589 73.5244,-64.2097 75.8478,-57.6065"/>
</g>
<!-- Node3 -->
<g id="node3" class="node"><title>Node3</title>
<g id="a_node3"><a xlink:href="../../dd/de9/namespaceprint__ip.html#a2c46c55a2eafd486d10ce2f3708ff420" target="_top" xlink:title="print_ip::print">
<polygon fill="white" stroke="black" points="110.5,-38.5 110.5,-57.5 183.5,-57.5 183.5,-38.5 110.5,-38.5"/>
<text text-anchor="middle" x="147" y="-45.5" font-family="Helvetica,sans-Serif" font-size="10.00">print_ip::print</text>
</a>
</g>
</g>
<!-- Node1&#45;&gt;Node3 -->
<g id="edge2" class="edge"><title>Node1&#45;&gt;Node3</title>
<path fill="none" stroke="midnightblue" d="M83.8715,-48C92.7352,-48 101.898,-48 110.375,-48"/>
<polygon fill="midnightblue" stroke="midnightblue" points="83.6626,-44.5001 73.6626,-48 83.6625,-51.5001 83.6626,-44.5001"/>
</g>
<!-- Node4 -->
<g id="node4" class="node"><title>Node4</title>
<g id="a_node4"><a xlink:href="../../d2/d7d/group__tests.html#gaa899580d94de5fa28ac4acbf8af7ee29" target="_top" xlink:title="TEST">
<polygon fill="white" stroke="black" points="126,-0.5 126,-19.5 168,-19.5 168,-0.5 126,-0.5"/>
<text text-anchor="middle" x="147" y="-7.5" font-family="Helvetica,sans-Serif" font-size="10.00">TEST</text>
</a>
</g>
</g>
<!-- Node1&#45;&gt;Node4 -->
<g id="edge3" class="edge"><title>Node1&#45;&gt;Node4</title>
<path fill="none" stroke="midnightblue" d="M74.9527,-34.9981C92.025,-28.9912 111.63,-22.093 125.915,-17.0668"/>
<polygon fill="midnightblue" stroke="midnightblue" points="73.5244,-31.7903 65.253,-38.411 75.8478,-38.3935 73.5244,-31.7903"/>
</g>
</g>
</svg>
