<?xml version="1.0" encoding="UTF-8" standalone="no"?>
<!DOCTYPE svg PUBLIC "-//W3C//DTD SVG 1.1//EN"
 "http://www.w3.org/Graphics/SVG/1.1/DTD/svg11.dtd">
<!-- Generated by graphviz version 2.36.0 (20140111.2315)
 -->
<!-- Title: print_ip::print Pages: 1 -->
<svg width="192pt" height="66pt"
 viewBox="0.00 0.00 192.00 66.00" xmlns="http://www.w3.org/2000/svg" xmlns:xlink="http://www.w3.org/1999/xlink">
<g id="graph0" class="graph" transform="scale(1 1) rotate(0) translate(4 62)">
<title>print_ip::print</title>
<polygon fill="white" stroke="none" points="-4,4 -4,-62 188,-62 188,4 -4,4"/>
<!-- Node5 -->
<g id="node1" class="node"><title>Node5</title>
<polygon fill="#bfbfbf" stroke="black" points="0.5,-19.5 0.5,-38.5 73.5,-38.5 73.5,-19.5 0.5,-19.5"/>
<text text-anchor="middle" x="37" y="-26.5" font-family="Helvetica,sans-Serif" font-size="10.00">print_ip::print</text>
</g>
<!-- Node6 -->
<g id="node2" class="node"><title>Node6</title>
<g id="a_node2"><a xlink:href="../../dd/de9/namespaceprint__ip.html#a0495a0775e2df081525bd97f35f59363" target="_top" xlink:title="print_ip::print">
<polygon fill="white" stroke="black" points="110.5,-38.5 110.5,-57.5 183.5,-57.5 183.5,-38.5 110.5,-38.5"/>
<text text-anchor="middle" x="147" y="-45.5" font-family="Helvetica,sans-Serif" font-size="10.00">print_ip::print</text>
</a>
</g>
</g>
<!-- Node5&#45;&gt;Node6 -->
<g id="edge1" class="edge"><title>Node5&#45;&gt;Node6</title>
<path fill="none" stroke="midnightblue" d="M73.6626,-35.274C82.2336,-36.7818 91.5041,-38.4128 100.457,-39.9877"/>
<polygon fill="midnightblue" stroke="midnightblue" points="99.9197,-43.447 110.375,-41.7326 101.133,-36.5528 99.9197,-43.447"/>
</g>
<!-- Node7 -->
<g id="node3" class="node"><title>Node7</title>
<g id="a_node3"><a doxygen="/home/travis/build/ortus-art/print_ip/docs/cppreference-doxygen-web.tag.xml:http://en.cppreference.com/w/" xlink:href="http://en.cppreference.com/w/cpp/io/manip/endl.html#" target="_top" xlink:title="std::endl">
<polygon fill="white" stroke="black" points="120,-0.5 120,-19.5 174,-19.5 174,-0.5 120,-0.5"/>
<text text-anchor="middle" x="147" y="-7.5" font-family="Helvetica,sans-Serif" font-size="10.00">std::endl</text>
</a>
</g>
</g>
<!-- Node5&#45;&gt;Node7 -->
<g id="edge2" class="edge"><title>Node5&#45;&gt;Node7</title>
<path fill="none" stroke="midnightblue" d="M73.6626,-22.726C85.3527,-20.6694 98.344,-18.3839 110.055,-16.3237"/>
<polygon fill="midnightblue" stroke="midnightblue" points="110.71,-19.7623 119.952,-14.5825 109.497,-12.8682 110.71,-19.7623"/>
</g>
</g>
</svg>
