<?xml version="1.0" encoding="UTF-8" standalone="no"?>
<!DOCTYPE svg PUBLIC "-//W3C//DTD SVG 1.1//EN"
 "http://www.w3.org/Graphics/SVG/1.1/DTD/svg11.dtd">
<!-- Generated by graphviz version 2.36.0 (20140111.2315)
 -->
<!-- Title: print_ip.h Pages: 1 -->
<svg width="134pt" height="84pt"
 viewBox="0.00 0.00 134.00 84.00" xmlns="http://www.w3.org/2000/svg" xmlns:xlink="http://www.w3.org/1999/xlink">
<g id="graph0" class="graph" transform="scale(1 1) rotate(0) translate(4 80)">
<title>print_ip.h</title>
<polygon fill="white" stroke="none" points="-4,4 -4,-80 130,-80 130,4 -4,4"/>
<!-- Node11 -->
<g id="node1" class="node"><title>Node11</title>
<polygon fill="#bfbfbf" stroke="black" points="36,-56.5 36,-75.5 92,-75.5 92,-56.5 36,-56.5"/>
<text text-anchor="middle" x="64" y="-63.5" font-family="Helvetica,sans-Serif" font-size="10.00">print_ip.h</text>
</g>
<!-- Node12 -->
<g id="node2" class="node"><title>Node12</title>
<g id="a_node2"><a xlink:href="../../df/d0a/main_8cpp.html" target="_top" xlink:title="main.cpp">
<polygon fill="white" stroke="black" points="0,-0.5 0,-19.5 56,-19.5 56,-0.5 0,-0.5"/>
<text text-anchor="middle" x="28" y="-7.5" font-family="Helvetica,sans-Serif" font-size="10.00">main.cpp</text>
</a>
</g>
</g>
<!-- Node11&#45;&gt;Node12 -->
<g id="edge1" class="edge"><title>Node11&#45;&gt;Node12</title>
<path fill="none" stroke="midnightblue" d="M52.3771,-47.5656C46.1832,-38.2747 38.8323,-27.2484 33.8341,-19.7511"/>
<polygon fill="midnightblue" stroke="midnightblue" points="49.5961,-49.7039 58.0553,-56.083 55.4205,-45.821 49.5961,-49.7039"/>
</g>
<!-- Node13 -->
<g id="node3" class="node"><title>Node13</title>
<g id="a_node3"><a xlink:href="../../df/dac/test_8cpp.html" target="_top" xlink:title="test.cpp">
<polygon fill="white" stroke="black" points="74,-0.5 74,-19.5 126,-19.5 126,-0.5 74,-0.5"/>
<text text-anchor="middle" x="100" y="-7.5" font-family="Helvetica,sans-Serif" font-size="10.00">test.cpp</text>
</a>
</g>
</g>
<!-- Node11&#45;&gt;Node13 -->
<g id="edge2" class="edge"><title>Node11&#45;&gt;Node13</title>
<path fill="none" stroke="midnightblue" d="M75.6229,-47.5656C81.8168,-38.2747 89.1677,-27.2484 94.1659,-19.7511"/>
<polygon fill="midnightblue" stroke="midnightblue" points="72.5795,-45.821 69.9447,-56.083 78.4039,-49.7039 72.5795,-45.821"/>
</g>
</g>
</svg>
