<?xml version="1.0" encoding="UTF-8" standalone="no"?>
<!DOCTYPE svg PUBLIC "-//W3C//DTD SVG 1.1//EN"
 "http://www.w3.org/Graphics/SVG/1.1/DTD/svg11.dtd">
<!-- Generated by graphviz version 2.36.0 (20140111.2315)
 -->
<!-- Title: main.cpp Pages: 1 -->
<svg width="499pt" height="196pt"
 viewBox="0.00 0.00 499.20 196.00" xmlns="http://www.w3.org/2000/svg" xmlns:xlink="http://www.w3.org/1999/xlink">
<g id="graph0" class="graph" transform="scale(1 1) rotate(0) translate(4 192)">
<title>main.cpp</title>
<polygon fill="white" stroke="none" points="-4,4 -4,-192 495.201,-192 495.201,4 -4,4"/>
<!-- Node0 -->
<g id="node1" class="node"><title>Node0</title>
<polygon fill="#bfbfbf" stroke="black" points="58.2009,-168.5 58.2009,-187.5 114.201,-187.5 114.201,-168.5 58.2009,-168.5"/>
<text text-anchor="middle" x="86.2009" y="-175.5" font-family="Helvetica,sans-Serif" font-size="10.00">main.cpp</text>
</g>
<!-- Node1 -->
<g id="node2" class="node"><title>Node1</title>
<polygon fill="white" stroke="#bfbfbf" points="93.2009,-56.5 93.2009,-75.5 147.201,-75.5 147.201,-56.5 93.2009,-56.5"/>
<text text-anchor="middle" x="120.201" y="-63.5" font-family="Helvetica,sans-Serif" font-size="10.00">iostream</text>
</g>
<!-- Node0&#45;&gt;Node1 -->
<g id="edge1" class="edge"><title>Node0&#45;&gt;Node1</title>
<path fill="none" stroke="midnightblue" d="M88.8688,-168.368C94.3804,-150.537 107.128,-109.295 114.553,-85.2717"/>
<polygon fill="midnightblue" stroke="midnightblue" points="117.936,-86.179 117.545,-75.5914 111.248,-84.1119 117.936,-86.179"/>
</g>
<!-- Node2 -->
<g id="node3" class="node"><title>Node2</title>
<polygon fill="white" stroke="#bfbfbf" points="50.2009,-0.5 50.2009,-19.5 88.2009,-19.5 88.2009,-0.5 50.2009,-0.5"/>
<text text-anchor="middle" x="69.2009" y="-7.5" font-family="Helvetica,sans-Serif" font-size="10.00">tuple</text>
</g>
<!-- Node0&#45;&gt;Node2 -->
<g id="edge2" class="edge"><title>Node0&#45;&gt;Node2</title>
<path fill="none" stroke="midnightblue" d="M62.2292,-168.4C46.073,-161.268 25.8359,-149.445 15.2009,-132 -2.41948,-103.097 -4.81515,-86.338 10.2009,-56 16.8038,-42.6595 29.4658,-32.1941 41.3721,-24.7262"/>
<polygon fill="midnightblue" stroke="midnightblue" points="43.3187,-27.6435 50.2167,-19.6018 39.8094,-21.5866 43.3187,-27.6435"/>
</g>
<!-- Node3 -->
<g id="node4" class="node"><title>Node3</title>
<g id="a_node4"><a xlink:href="../../dc/d54/common_8h.html" target="_top" xlink:title="common.h">
<polygon fill="white" stroke="black" points="24.2009,-112.5 24.2009,-131.5 86.2009,-131.5 86.2009,-112.5 24.2009,-112.5"/>
<text text-anchor="middle" x="55.2009" y="-119.5" font-family="Helvetica,sans-Serif" font-size="10.00">common.h</text>
</a>
</g>
</g>
<!-- Node0&#45;&gt;Node3 -->
<g id="edge3" class="edge"><title>Node0&#45;&gt;Node3</title>
<path fill="none" stroke="midnightblue" d="M81.0818,-168.083C76.7933,-160.613 70.5427,-149.724 65.2586,-140.52"/>
<polygon fill="midnightblue" stroke="midnightblue" points="68.2387,-138.681 60.2246,-131.751 62.168,-142.166 68.2387,-138.681"/>
</g>
<!-- Node5 -->
<g id="node6" class="node"><title>Node5</title>
<g id="a_node6"><a xlink:href="../../dd/d97/print__ip_8h.html" target="_top" xlink:title="print_ip.h">
<polygon fill="white" stroke="black" points="232.201,-112.5 232.201,-131.5 288.201,-131.5 288.201,-112.5 232.201,-112.5"/>
<text text-anchor="middle" x="260.201" y="-119.5" font-family="Helvetica,sans-Serif" font-size="10.00">print_ip.h</text>
</a>
</g>
</g>
<!-- Node0&#45;&gt;Node5 -->
<g id="edge5" class="edge"><title>Node0&#45;&gt;Node5</title>
<path fill="none" stroke="midnightblue" d="M113.772,-168.444C143.298,-159.28 190.319,-144.688 223.083,-134.519"/>
<polygon fill="midnightblue" stroke="midnightblue" points="224.246,-137.823 232.759,-131.516 222.171,-131.138 224.246,-137.823"/>
</g>
<!-- Node4 -->
<g id="node5" class="node"><title>Node4</title>
<polygon fill="white" stroke="#bfbfbf" points="19.2009,-56.5 19.2009,-75.5 75.2009,-75.5 75.2009,-56.5 19.2009,-56.5"/>
<text text-anchor="middle" x="47.2009" y="-63.5" font-family="Helvetica,sans-Serif" font-size="10.00">version.h</text>
</g>
<!-- Node3&#45;&gt;Node4 -->
<g id="edge4" class="edge"><title>Node3&#45;&gt;Node4</title>
<path fill="none" stroke="midnightblue" d="M53.8798,-112.083C52.8197,-104.927 51.295,-94.6353 49.9699,-85.6911"/>
<polygon fill="midnightblue" stroke="midnightblue" points="53.4251,-85.1302 48.4973,-75.7511 46.5007,-86.1561 53.4251,-85.1302"/>
</g>
<!-- Node5&#45;&gt;Node1 -->
<g id="edge9" class="edge"><title>Node5&#45;&gt;Node1</title>
<path fill="none" stroke="midnightblue" d="M238.017,-112.444C214.772,-103.478 178.052,-89.314 151.786,-79.1827"/>
<polygon fill="midnightblue" stroke="midnightblue" points="152.87,-75.8497 142.28,-75.5164 150.351,-82.3807 152.87,-75.8497"/>
</g>
<!-- Node6 -->
<g id="node7" class="node"><title>Node6</title>
<polygon fill="white" stroke="#bfbfbf" points="314.201,-56.5 314.201,-75.5 370.201,-75.5 370.201,-56.5 314.201,-56.5"/>
<text text-anchor="middle" x="342.201" y="-63.5" font-family="Helvetica,sans-Serif" font-size="10.00">algorithm</text>
</g>
<!-- Node5&#45;&gt;Node6 -->
<g id="edge6" class="edge"><title>Node5&#45;&gt;Node6</title>
<path fill="none" stroke="midnightblue" d="M273.376,-112.324C286.048,-103.979 305.434,-91.2122 320.406,-81.3524"/>
<polygon fill="midnightblue" stroke="midnightblue" points="322.632,-84.0776 329.059,-75.6545 318.782,-78.2313 322.632,-84.0776"/>
</g>
<!-- Node7 -->
<g id="node8" class="node"><title>Node7</title>
<polygon fill="white" stroke="#bfbfbf" points="388.201,-56.5 388.201,-75.5 426.201,-75.5 426.201,-56.5 388.201,-56.5"/>
<text text-anchor="middle" x="407.201" y="-63.5" font-family="Helvetica,sans-Serif" font-size="10.00">array</text>
</g>
<!-- Node5&#45;&gt;Node7 -->
<g id="edge7" class="edge"><title>Node5&#45;&gt;Node7</title>
<path fill="none" stroke="midnightblue" d="M283.493,-112.444C309.162,-103.014 350.479,-87.8364 378.221,-77.6458"/>
<polygon fill="midnightblue" stroke="midnightblue" points="379.593,-80.8704 387.773,-74.1368 377.179,-74.2997 379.593,-80.8704"/>
</g>
<!-- Node8 -->
<g id="node9" class="node"><title>Node8</title>
<polygon fill="white" stroke="#bfbfbf" points="444.701,-56.5 444.701,-75.5 491.701,-75.5 491.701,-56.5 444.701,-56.5"/>
<text text-anchor="middle" x="468.201" y="-63.5" font-family="Helvetica,sans-Serif" font-size="10.00">iterator</text>
</g>
<!-- Node5&#45;&gt;Node8 -->
<g id="edge8" class="edge"><title>Node5&#45;&gt;Node8</title>
<path fill="none" stroke="midnightblue" d="M288.422,-113.878C321.146,-105.59 376.963,-91.3631 434.432,-76.175"/>
<polygon fill="midnightblue" stroke="midnightblue" points="435.648,-79.4738 444.419,-73.5304 433.856,-72.707 435.648,-79.4738"/>
</g>
<!-- Node9 -->
<g id="node10" class="node"><title>Node9</title>
<polygon fill="white" stroke="#bfbfbf" points="165.701,-56.5 165.701,-75.5 206.701,-75.5 206.701,-56.5 165.701,-56.5"/>
<text text-anchor="middle" x="186.201" y="-63.5" font-family="Helvetica,sans-Serif" font-size="10.00">string</text>
</g>
<!-- Node5&#45;&gt;Node9 -->
<g id="edge10" class="edge"><title>Node5&#45;&gt;Node9</title>
<path fill="none" stroke="midnightblue" d="M248.311,-112.324C237.051,-104.107 219.914,-91.6017 206.492,-81.8069"/>
<polygon fill="midnightblue" stroke="midnightblue" points="208.448,-78.9014 198.307,-75.8339 204.321,-84.5559 208.448,-78.9014"/>
</g>
<!-- Node10 -->
<g id="node11" class="node"><title>Node10</title>
<g id="a_node11"><a xlink:href="../../d5/d3e/print__traits_8h.html" target="_top" xlink:title="print_traits.h">
<polygon fill="white" stroke="black" points="224.701,-56.5 224.701,-75.5 295.701,-75.5 295.701,-56.5 224.701,-56.5"/>
<text text-anchor="middle" x="260.201" y="-63.5" font-family="Helvetica,sans-Serif" font-size="10.00">print_traits.h</text>
</a>
</g>
</g>
<!-- Node5&#45;&gt;Node10 -->
<g id="edge11" class="edge"><title>Node5&#45;&gt;Node10</title>
<path fill="none" stroke="midnightblue" d="M260.201,-112.083C260.201,-105.006 260.201,-94.8611 260.201,-85.9865"/>
<polygon fill="midnightblue" stroke="midnightblue" points="263.701,-85.751 260.201,-75.7511 256.701,-85.7511 263.701,-85.751"/>
</g>
<!-- Node10&#45;&gt;Node2 -->
<g id="edge15" class="edge"><title>Node10&#45;&gt;Node2</title>
<path fill="none" stroke="midnightblue" d="M229.936,-56.4435C193.747,-46.212 133.618,-29.2121 98.0614,-19.1595"/>
<polygon fill="midnightblue" stroke="midnightblue" points="98.8719,-15.7515 88.2968,-16.3989 96.9674,-22.4875 98.8719,-15.7515"/>
</g>
<!-- Node11 -->
<g id="node12" class="node"><title>Node11</title>
<polygon fill="white" stroke="#bfbfbf" points="292.201,-0.5 292.201,-19.5 354.201,-19.5 354.201,-0.5 292.201,-0.5"/>
<text text-anchor="middle" x="323.201" y="-7.5" font-family="Helvetica,sans-Serif" font-size="10.00">type_traits</text>
</g>
<!-- Node10&#45;&gt;Node11 -->
<g id="edge12" class="edge"><title>Node10&#45;&gt;Node11</title>
<path fill="none" stroke="midnightblue" d="M270.323,-56.324C279.727,-48.2631 293.945,-36.0765 305.27,-26.3695"/>
<polygon fill="midnightblue" stroke="midnightblue" points="307.58,-28.9993 312.895,-19.8339 303.024,-23.6844 307.58,-28.9993"/>
</g>
<!-- Node12 -->
<g id="node13" class="node"><title>Node12</title>
<polygon fill="white" stroke="#bfbfbf" points="184.201,-0.5 184.201,-19.5 228.201,-19.5 228.201,-0.5 184.201,-0.5"/>
<text text-anchor="middle" x="206.201" y="-7.5" font-family="Helvetica,sans-Serif" font-size="10.00">vector</text>
</g>
<!-- Node10&#45;&gt;Node12 -->
<g id="edge13" class="edge"><title>Node10&#45;&gt;Node12</title>
<path fill="none" stroke="midnightblue" d="M251.284,-56.083C243.42,-48.2195 231.77,-36.5688 222.282,-27.0813"/>
<polygon fill="midnightblue" stroke="midnightblue" points="224.498,-24.3473 214.952,-19.7511 219.548,-29.2971 224.498,-24.3473"/>
</g>
<!-- Node13 -->
<g id="node14" class="node"><title>Node13</title>
<polygon fill="white" stroke="#bfbfbf" points="245.701,-0.5 245.701,-19.5 274.701,-19.5 274.701,-0.5 245.701,-0.5"/>
<text text-anchor="middle" x="260.201" y="-7.5" font-family="Helvetica,sans-Serif" font-size="10.00">list</text>
</g>
<!-- Node10&#45;&gt;Node13 -->
<g id="edge14" class="edge"><title>Node10&#45;&gt;Node13</title>
<path fill="none" stroke="midnightblue" d="M260.201,-56.083C260.201,-49.0059 260.201,-38.8611 260.201,-29.9865"/>
<polygon fill="midnightblue" stroke="midnightblue" points="263.701,-29.751 260.201,-19.7511 256.701,-29.7511 263.701,-29.751"/>
</g>
</g>
</svg>
