<?xml version="1.0" encoding="UTF-8" standalone="no"?>
<!DOCTYPE svg PUBLIC "-//W3C//DTD SVG 1.1//EN"
 "http://www.w3.org/Graphics/SVG/1.1/DTD/svg11.dtd">
<!-- Generated by graphviz version 2.36.0 (20140111.2315)
 -->
<!-- Title: main.cpp Pages: 1 -->
<svg width="421pt" height="196pt"
 viewBox="0.00 0.00 420.86 196.00" xmlns="http://www.w3.org/2000/svg" xmlns:xlink="http://www.w3.org/1999/xlink">
<g id="graph0" class="graph" transform="scale(1 1) rotate(0) translate(4 192)">
<title>main.cpp</title>
<polygon fill="white" stroke="none" points="-4,4 -4,-192 416.861,-192 416.861,4 -4,4"/>
<!-- Node0 -->
<g id="node1" class="node"><title>Node0</title>
<polygon fill="#bfbfbf" stroke="black" points="13.8605,-168.5 13.8605,-187.5 69.8605,-187.5 69.8605,-168.5 13.8605,-168.5"/>
<text text-anchor="middle" x="41.8605" y="-175.5" font-family="Helvetica,sans-Serif" font-size="10.00">main.cpp</text>
</g>
<!-- Node1 -->
<g id="node2" class="node"><title>Node1</title>
<polygon fill="white" stroke="#bfbfbf" points="14.8605,-56.5 14.8605,-75.5 68.8605,-75.5 68.8605,-56.5 14.8605,-56.5"/>
<text text-anchor="middle" x="41.8605" y="-63.5" font-family="Helvetica,sans-Serif" font-size="10.00">iostream</text>
</g>
<!-- Node0&#45;&gt;Node1 -->
<g id="edge1" class="edge"><title>Node0&#45;&gt;Node1</title>
<path fill="none" stroke="midnightblue" d="M41.8605,-168.368C41.8605,-150.617 41.8605,-109.666 41.8605,-85.5974"/>
<polygon fill="midnightblue" stroke="midnightblue" points="45.3606,-85.5914 41.8605,-75.5914 38.3606,-85.5915 45.3606,-85.5914"/>
</g>
<!-- Node2 -->
<g id="node3" class="node"><title>Node2</title>
<polygon fill="white" stroke="#bfbfbf" points="41.8605,-0.5 41.8605,-19.5 79.8605,-19.5 79.8605,-0.5 41.8605,-0.5"/>
<text text-anchor="middle" x="60.8605" y="-7.5" font-family="Helvetica,sans-Serif" font-size="10.00">tuple</text>
</g>
<!-- Node0&#45;&gt;Node2 -->
<g id="edge2" class="edge"><title>Node0&#45;&gt;Node2</title>
<path fill="none" stroke="midnightblue" d="M35.2002,-168.46C20.2766,-148.215 -13.0982,-96.0075 5.86052,-56 11.9887,-43.0681 23.8548,-32.6167 35.0011,-25.0528"/>
<polygon fill="midnightblue" stroke="midnightblue" points="37.0552,-27.8958 43.6625,-19.6136 33.3325,-21.9678 37.0552,-27.8958"/>
</g>
<!-- Node3 -->
<g id="node4" class="node"><title>Node3</title>
<g id="a_node4"><a xlink:href="../../dd/d97/print__ip_8h.html" target="_top" xlink:title="print_ip.h">
<polygon fill="white" stroke="black" points="144.861,-112.5 144.861,-131.5 200.861,-131.5 200.861,-112.5 144.861,-112.5"/>
<text text-anchor="middle" x="172.861" y="-119.5" font-family="Helvetica,sans-Serif" font-size="10.00">print_ip.h</text>
</a>
</g>
</g>
<!-- Node0&#45;&gt;Node3 -->
<g id="edge3" class="edge"><title>Node0&#45;&gt;Node3</title>
<path fill="none" stroke="midnightblue" d="M62.6179,-168.444C84.1769,-159.557 118.124,-145.563 142.654,-135.451"/>
<polygon fill="midnightblue" stroke="midnightblue" points="144.289,-138.563 152.2,-131.516 141.621,-132.092 144.289,-138.563"/>
</g>
<!-- Node3&#45;&gt;Node1 -->
<g id="edge7" class="edge"><title>Node3&#45;&gt;Node1</title>
<path fill="none" stroke="midnightblue" d="M152.103,-112.444C130.544,-103.557 96.5972,-89.5632 72.0667,-79.4514"/>
<polygon fill="midnightblue" stroke="midnightblue" points="73.1,-76.0917 62.5207,-75.5164 70.4322,-82.5634 73.1,-76.0917"/>
</g>
<!-- Node4 -->
<g id="node5" class="node"><title>Node4</title>
<polygon fill="white" stroke="#bfbfbf" points="300.861,-56.5 300.861,-75.5 356.861,-75.5 356.861,-56.5 300.861,-56.5"/>
<text text-anchor="middle" x="328.861" y="-63.5" font-family="Helvetica,sans-Serif" font-size="10.00">algorithm</text>
</g>
<!-- Node3&#45;&gt;Node4 -->
<g id="edge4" class="edge"><title>Node3&#45;&gt;Node4</title>
<path fill="none" stroke="midnightblue" d="M197.579,-112.444C223.709,-103.399 265.12,-89.064 294.437,-78.9158"/>
<polygon fill="midnightblue" stroke="midnightblue" points="295.953,-82.0951 304.258,-75.5164 293.663,-75.4801 295.953,-82.0951"/>
</g>
<!-- Node5 -->
<g id="node6" class="node"><title>Node5</title>
<polygon fill="white" stroke="#bfbfbf" points="374.861,-56.5 374.861,-75.5 412.861,-75.5 412.861,-56.5 374.861,-56.5"/>
<text text-anchor="middle" x="393.861" y="-63.5" font-family="Helvetica,sans-Serif" font-size="10.00">array</text>
</g>
<!-- Node3&#45;&gt;Node5 -->
<g id="edge5" class="edge"><title>Node3&#45;&gt;Node5</title>
<path fill="none" stroke="midnightblue" d="M200.998,-115.058C238.554,-106.979 307.047,-91.725 364.861,-76 364.959,-75.9732 365.058,-75.9463 365.157,-75.9193"/>
<polygon fill="midnightblue" stroke="midnightblue" points="365.94,-79.3362 374.573,-73.1941 363.994,-72.6121 365.94,-79.3362"/>
</g>
<!-- Node6 -->
<g id="node7" class="node"><title>Node6</title>
<polygon fill="white" stroke="#bfbfbf" points="87.3605,-56.5 87.3605,-75.5 134.361,-75.5 134.361,-56.5 87.3605,-56.5"/>
<text text-anchor="middle" x="110.861" y="-63.5" font-family="Helvetica,sans-Serif" font-size="10.00">iterator</text>
</g>
<!-- Node3&#45;&gt;Node6 -->
<g id="edge6" class="edge"><title>Node3&#45;&gt;Node6</title>
<path fill="none" stroke="midnightblue" d="M162.899,-112.324C153.734,-104.341 139.923,-92.3128 128.832,-82.6529"/>
<polygon fill="midnightblue" stroke="midnightblue" points="130.843,-79.7624 121.003,-75.8339 126.245,-85.041 130.843,-79.7624"/>
</g>
<!-- Node7 -->
<g id="node8" class="node"><title>Node7</title>
<polygon fill="white" stroke="#bfbfbf" points="152.361,-56.5 152.361,-75.5 193.361,-75.5 193.361,-56.5 152.361,-56.5"/>
<text text-anchor="middle" x="172.861" y="-63.5" font-family="Helvetica,sans-Serif" font-size="10.00">string</text>
</g>
<!-- Node3&#45;&gt;Node7 -->
<g id="edge8" class="edge"><title>Node3&#45;&gt;Node7</title>
<path fill="none" stroke="midnightblue" d="M172.861,-112.083C172.861,-105.006 172.861,-94.8611 172.861,-85.9865"/>
<polygon fill="midnightblue" stroke="midnightblue" points="176.361,-85.751 172.861,-75.7511 169.361,-85.7511 176.361,-85.751"/>
</g>
<!-- Node8 -->
<g id="node9" class="node"><title>Node8</title>
<g id="a_node9"><a xlink:href="../../d5/d3e/print__traits_8h.html" target="_top" xlink:title="print_traits.h">
<polygon fill="white" stroke="black" points="211.361,-56.5 211.361,-75.5 282.361,-75.5 282.361,-56.5 211.361,-56.5"/>
<text text-anchor="middle" x="246.861" y="-63.5" font-family="Helvetica,sans-Serif" font-size="10.00">print_traits.h</text>
</a>
</g>
</g>
<!-- Node3&#45;&gt;Node8 -->
<g id="edge9" class="edge"><title>Node3&#45;&gt;Node8</title>
<path fill="none" stroke="midnightblue" d="M184.75,-112.324C196.011,-104.107 213.147,-91.6017 226.57,-81.8069"/>
<polygon fill="midnightblue" stroke="midnightblue" points="228.74,-84.5559 234.755,-75.8339 224.614,-78.9014 228.74,-84.5559"/>
</g>
<!-- Node8&#45;&gt;Node2 -->
<g id="edge13" class="edge"><title>Node8&#45;&gt;Node2</title>
<path fill="none" stroke="midnightblue" d="M217.388,-56.4435C182.483,-46.3099 124.709,-29.5365 89.9651,-19.4497"/>
<polygon fill="midnightblue" stroke="midnightblue" points="90.5523,-15.9757 79.973,-16.5488 88.6006,-22.6982 90.5523,-15.9757"/>
</g>
<!-- Node9 -->
<g id="node10" class="node"><title>Node9</title>
<polygon fill="white" stroke="#bfbfbf" points="278.861,-0.5 278.861,-19.5 340.861,-19.5 340.861,-0.5 278.861,-0.5"/>
<text text-anchor="middle" x="309.861" y="-7.5" font-family="Helvetica,sans-Serif" font-size="10.00">type_traits</text>
</g>
<!-- Node8&#45;&gt;Node9 -->
<g id="edge10" class="edge"><title>Node8&#45;&gt;Node9</title>
<path fill="none" stroke="midnightblue" d="M256.983,-56.324C266.387,-48.2631 280.605,-36.0765 291.929,-26.3695"/>
<polygon fill="midnightblue" stroke="midnightblue" points="294.24,-28.9993 299.554,-19.8339 289.684,-23.6844 294.24,-28.9993"/>
</g>
<!-- Node10 -->
<g id="node11" class="node"><title>Node10</title>
<polygon fill="white" stroke="#bfbfbf" points="170.861,-0.5 170.861,-19.5 214.861,-19.5 214.861,-0.5 170.861,-0.5"/>
<text text-anchor="middle" x="192.861" y="-7.5" font-family="Helvetica,sans-Serif" font-size="10.00">vector</text>
</g>
<!-- Node8&#45;&gt;Node10 -->
<g id="edge11" class="edge"><title>Node8&#45;&gt;Node10</title>
<path fill="none" stroke="midnightblue" d="M237.944,-56.083C230.08,-48.2195 218.429,-36.5688 208.942,-27.0813"/>
<polygon fill="midnightblue" stroke="midnightblue" points="211.158,-24.3473 201.612,-19.7511 206.208,-29.2971 211.158,-24.3473"/>
</g>
<!-- Node11 -->
<g id="node12" class="node"><title>Node11</title>
<polygon fill="white" stroke="#bfbfbf" points="232.361,-0.5 232.361,-19.5 261.361,-19.5 261.361,-0.5 232.361,-0.5"/>
<text text-anchor="middle" x="246.861" y="-7.5" font-family="Helvetica,sans-Serif" font-size="10.00">list</text>
</g>
<!-- Node8&#45;&gt;Node11 -->
<g id="edge12" class="edge"><title>Node8&#45;&gt;Node11</title>
<path fill="none" stroke="midnightblue" d="M246.861,-56.083C246.861,-49.0059 246.861,-38.8611 246.861,-29.9865"/>
<polygon fill="midnightblue" stroke="midnightblue" points="250.361,-29.751 246.861,-19.7511 243.361,-29.7511 250.361,-29.751"/>
</g>
</g>
</svg>
